<?xml version="1.0" encoding="UTF-8"?>
<!-- Created with Inkscape (http://www.inkscape.org/) -->
<svg width="24.838mm" height="24.226mm" version="1.1" viewBox="0 0 24.838 24.226" xmlns="http://www.w3.org/2000/svg">
 <g transform="translate(-11.102 -52.483)">
  <path d="m23.521 52.483c-6.8578 0-12.418 5.5604-12.418 12.42 0 5.4867 3.5574 10.142 8.4936 11.785 0.6211 0.11335 0.81675-0.25465 0.81675-0.58384 0-0.29503 0.0062-1.1195 0-2.156-3.4541 0.75076-4.1699-1.6358-4.1699-1.6358-0.56443-1.4348-1.3781-1.8167-1.3781-1.8167-1.1273-0.77017 0.08462-0.75542 0.08462-0.75542 1.2461 0.08773 1.9029 1.2802 1.9029 1.2802 1.1079 1.8967 2.906 1.3486 3.6133 1.0318 0.11335-0.80278 0.43477-1.3501 0.78958-1.6607-2.7577-0.31366-5.6567-1.3789-5.6567-6.1381 0-1.3563 0.48368-2.4642 1.2779-3.3322-0.1281-0.31366-0.55511-1.5768 0.12189-3.2872 0 0 1.0427-0.33384 3.4145 1.274 0.99066-0.27562 2.0535-0.41304 3.1094-0.41769 1.0551 0.0047 2.1172 0.14208 3.1094 0.41769 2.3718-1.6071 3.413-1.274 3.413-1.274 0.677 1.7104 0.25077 2.9735 0.12344 3.2872 0.79424 0.86799 1.2764 1.9759 1.2764 3.3322 0 4.7716-2.9037 5.8213-5.6707 6.128 0.44564 0.38431 0.85014 1.1296 0.85014 2.288v3.4378c0 0.33229 0.2003 0.69952 0.83073 0.57918 4.9316-1.6452 8.4858-6.298 8.4858-11.783 0-6.8593-5.5604-12.42-12.42-12.42z" clip-rule="evenodd" fill="currentColor" fill-rule="evenodd" stroke-width=".77638"/>
 </g>
</svg>
