<?xml version="1.0" encoding="UTF-8"?>
<!-- Created with Inkscape (http://www.inkscape.org/) -->
<svg width="34.59mm" height="34.59mm" version="1.1" viewBox="0 0 34.59 34.59" xmlns="http://www.w3.org/2000/svg">
 <g transform="translate(-57.832 -68.715)">
  <g transform="matrix(.067559 0 0 .067559 57.832 68.715)" clip-rule="evenodd" fill="#100c08" fill-rule="evenodd" stroke-linejoin="round" stroke-miterlimit="2">
   <path d="m256 0c141.29 0 256 114.71 256 256s-114.71 256-256 256-256-114.71-256-256 114.71-256 256-256zm-80.037 399.87v-199.92h-66.464v199.92zm239.62 0v-114.65c0-61.409-32.787-89.976-76.509-89.976-35.255 0-51.047 19.389-59.889 33.007v-28.306h-66.447c0.881 18.757 0 199.92 0 199.92h66.446v-111.65c0-5.976 0.43-11.95 2.191-16.221 4.795-11.935 15.737-24.299 34.095-24.299 24.034 0 33.663 18.34 33.663 45.204v106.97zm-272.4-296.32c-22.74 0-37.597 14.95-37.597 34.545 0 19.182 14.405 34.544 36.717 34.544h0.429c23.175 0 37.6-15.362 37.6-34.544-0.43-19.595-14.424-34.545-37.149-34.545z" fill="#100c08"/>
  </g>
 </g>
</svg>
